<?xml version="1.0" standalone="no"?>
<!DOCTYPE svg PUBLIC "-//W3C//DTD SVG 20010904//EN"
 "http://www.w3.org/TR/2001/REC-SVG-20010904/DTD/svg10.dtd">
<svg version="1.0" xmlns="http://www.w3.org/2000/svg"
 width="1120.000000pt" height="1120.000000pt" viewBox="0 0 1120.000000 1120.000000"
 preserveAspectRatio="xMidYMid meet">
<metadata>
Created by potrace 1.14, written by Peter Selinger 2001-2017
</metadata>
<g transform="translate(0.000000,1120.000000) scale(0.100000,-0.100000)"
fill="#000000" stroke="none">
<path d="M5444 11179 c-209 -80 -270 -352 -115 -509 70 -71 128 -95 226 -94
94 1 154 24 216 86 64 63 92 130 93 218 1 66 -3 84 -32 142 -54 111 -143 168
-265 174 -53 2 -85 -2 -123 -17z"/>
<path d="M3895 10474 c-71 -16 -137 -50 -190 -96 -48 -43 -108 -123 -108 -145
0 -7 -4 -13 -9 -13 -4 0 -8 -6 -8 -14 0 -8 -5 -27 -11 -43 -17 -40 -17 -170
-2 -223 21 -72 59 -142 99 -183 42 -43 114 -102 114 -93 0 4 10 0 23 -8 65
-43 221 -54 319 -23 248 78 374 366 262 601 -86 182 -296 285 -489 240z"/>
<path d="M6990 10464 c-78 -25 -133 -58 -181 -110 -90 -99 -121 -172 -124
-299 -7 -246 197 -449 440 -439 89 3 118 9 181 39 81 38 158 115 199 198 40
82 47 116 47 206 -1 65 -36 201 -53 201 -5 0 -9 5 -9 11 0 19 -71 98 -121 134
-106 76 -256 99 -379 59z"/>
<path d="M5457 10014 c-3 -3 -15 -7 -28 -8 -13 -2 -37 -8 -52 -15 -16 -6 -35
-11 -43 -11 -8 0 -14 -4 -14 -10 0 -5 -7 -10 -16 -10 -32 0 -204 -139 -204
-165 0 -3 -9 -15 -20 -27 -11 -12 -20 -28 -20 -35 0 -7 -4 -13 -10 -13 -5 0
-10 -9 -10 -19 0 -11 -4 -22 -9 -25 -32 -20 -59 -258 -39 -335 5 -18 11 -41
13 -50 17 -78 79 -177 157 -253 32 -32 62 -58 67 -58 5 0 14 -7 21 -15 19 -23
168 -76 225 -79 29 -2 57 -6 62 -8 18 -9 136 9 205 33 215 72 374 287 382 516
8 216 -117 433 -304 527 -88 45 -145 58 -252 61 -58 2 -108 1 -111 -1z"/>
<path d="M2585 9443 c-80 -15 -158 -73 -192 -143 -22 -45 -24 -54 -24 -121 -2
-160 157 -282 321 -245 46 10 129 64 130 84 0 6 4 12 9 12 5 0 18 20 30 45 22
48 35 135 19 135 -5 0 -6 5 -3 10 18 29 -48 144 -100 176 -61 38 -137 56 -190
47z"/>
<path d="M8418 9433 c-61 -18 -89 -33 -120 -67 -119 -128 -84 -338 70 -412 48
-23 57 -25 117 -25 135 -1 236 93 253 235 5 36 5 66 0 66 -4 0 -8 10 -8 23 0
32 -49 107 -91 139 -61 45 -150 62 -221 41z"/>
<path d="M3865 9063 c-38 -8 -78 -21 -89 -29 -11 -8 -28 -14 -38 -14 -10 0
-18 -3 -18 -8 0 -4 -15 -14 -32 -21 -66 -29 -210 -197 -224 -261 0 -3 -6 -17
-12 -31 -6 -15 -14 -44 -18 -65 -4 -22 -9 -48 -11 -59 -2 -11 -4 -45 -3 -75 0
-51 2 -68 14 -125 6 -29 48 -139 55 -145 3 -3 13 -18 21 -34 22 -43 131 -149
182 -178 166 -93 334 -107 504 -43 194 73 339 263 361 470 5 56 5 53 -1 118
-7 79 -23 132 -57 197 -44 83 -49 90 -117 157 -72 72 -182 131 -279 150 -58
11 -171 9 -238 -4z"/>
<path d="M7059 9076 c-2 -2 -22 -6 -44 -9 -185 -26 -375 -189 -435 -372 -7
-22 -13 -41 -12 -42 0 -2 -4 -17 -9 -35 -15 -51 -11 -186 6 -253 86 -325 414
-501 741 -398 30 9 54 21 54 25 0 5 4 7 9 3 5 -3 16 2 24 10 9 8 19 15 23 15
10 0 94 69 127 105 15 16 40 50 55 75 14 25 30 47 34 48 4 2 8 10 8 17 0 8 4
24 9 37 5 13 10 26 11 30 1 4 8 27 15 50 12 42 13 199 2 247 -12 48 -30 96
-38 106 -5 5 -9 17 -9 27 0 10 -3 18 -8 18 -4 0 -15 15 -25 33 -58 108 -203
212 -342 246 -50 12 -188 24 -196 17z"/>
<path d="M5468 8324 c-2 -1 -28 -6 -57 -9 -30 -3 -75 -13 -100 -22 -56 -18
-164 -65 -171 -73 -3 -4 -12 -9 -20 -12 -30 -11 -138 -99 -184 -149 -65 -72
-150 -202 -161 -249 -1 -3 -4 -12 -8 -20 -41 -102 -51 -163 -51 -305 0 -111 6
-170 22 -220 3 -11 7 -23 8 -27 1 -5 3 -10 4 -13 1 -3 3 -8 5 -12 28 -100 109
-229 204 -324 111 -111 225 -178 372 -219 60 -16 195 -34 244 -32 81 4 241 37
262 54 7 6 13 8 13 5 0 -14 170 77 220 118 82 66 220 230 220 261 0 4 6 15 14
23 7 9 25 50 40 91 111 314 38 660 -188 884 -64 63 -116 107 -116 99 0 -5 -4
-3 -8 3 -21 33 -194 109 -307 135 -46 11 -249 21 -257 13z"/>
<path d="M2565 7882 c-34 -7 -136 -42 -148 -52 -93 -73 -140 -131 -172 -215
-39 -100 -16 -281 44 -359 153 -199 405 -234 592 -84 31 25 102 112 105 128 0
3 6 18 13 34 22 53 29 108 26 180 -9 162 -134 313 -294 356 -47 12 -132 19
-166 12z"/>
<path d="M8418 7879 c-51 -8 -168 -57 -168 -70 0 -5 -4 -9 -10 -9 -8 0 -51
-42 -85 -83 -15 -17 -55 -101 -61 -128 -3 -13 -7 -45 -9 -70 -3 -26 -5 -50 -6
-55 -7 -26 48 -194 63 -194 5 0 8 -6 8 -12 0 -11 71 -83 111 -113 61 -46 196
-77 274 -63 165 30 278 123 330 274 96 281 -149 568 -447 523z"/>
<path d="M3870 7018 c-19 -4 -39 -10 -45 -11 -5 -1 -16 -6 -22 -10 -7 -5 -13
-6 -13 -3 0 18 -192 -107 -212 -139 -3 -5 -19 -24 -35 -42 -28 -31 -72 -111
-94 -168 -19 -53 -24 -88 -24 -195 0 -85 5 -118 24 -174 38 -111 121 -221 216
-285 44 -30 123 -69 151 -76 11 -2 34 -9 53 -14 33 -10 215 -9 256 2 120 31
242 111 314 207 14 19 28 37 31 40 12 11 59 118 70 160 10 37 21 112 22 155 2
33 -17 129 -34 180 -59 179 -233 337 -408 372 -47 10 -215 10 -250 1z"/>
<path d="M7002 7019 c-13 -5 -34 -11 -46 -13 -41 -7 -129 -52 -183 -93 -101
-76 -199 -227 -206 -315 -1 -10 -4 -18 -7 -18 -7 0 -8 -12 -10 -115 -1 -82 -1
-89 20 -165 39 -146 152 -279 295 -349 168 -83 343 -82 514 2 83 41 233 185
227 218 -1 4 6 15 15 25 19 23 46 94 56 149 9 48 10 190 1 225 -3 14 -9 39
-13 55 -4 17 -10 35 -14 40 -3 6 -6 12 -6 15 0 22 -88 149 -129 188 -113 107
-228 154 -386 157 -58 2 -115 -1 -128 -6z"/>
<path d="M5476 6082 c-2 -2 -19 -6 -37 -9 -112 -17 -255 -105 -334 -205 -96
-121 -136 -283 -113 -448 12 -77 39 -148 90 -226 24 -38 103 -124 113 -124 3
0 15 -9 27 -20 13 -10 25 -18 28 -17 3 1 20 -9 38 -21 18 -13 38 -25 45 -26 7
-1 36 -10 65 -20 54 -18 208 -26 262 -13 14 3 34 8 45 10 36 9 109 40 137 59
14 10 29 18 32 18 9 0 54 40 95 83 173 184 205 465 76 682 -39 66 -148 176
-195 197 -17 7 -30 16 -30 20 0 5 -6 8 -13 8 -8 0 -28 7 -45 15 -17 9 -41 18
-54 21 -13 2 -36 7 -53 10 -34 7 -174 12 -179 6z"/>
<path d="M2518 6016 c-162 -75 -201 -288 -77 -416 97 -101 271 -100 370 1 60
62 87 158 66 234 -5 17 -9 35 -10 40 -2 6 -13 26 -26 45 -75 109 -209 149
-323 96z"/>
<path d="M8400 6026 c-42 -12 -50 -18 -106 -73 -49 -48 -68 -99 -67 -183 1
-142 125 -253 274 -245 86 4 154 46 204 125 23 37 29 58 31 118 3 78 -4 105
-47 166 -62 87 -182 125 -289 92z"/>
<path d="M3860 5332 c-30 -10 -75 -31 -99 -46 -45 -29 -131 -111 -131 -126 0
-5 -6 -15 -13 -22 -15 -15 -48 -92 -54 -128 -9 -49 -9 -146 -1 -185 38 -174
197 -322 367 -342 77 -9 92 -9 97 -2 3 5 11 6 18 3 19 -7 134 33 179 62 52 34
117 96 117 112 0 6 4 12 8 12 8 0 53 86 53 102 1 4 6 27 13 50 26 92 6 218
-52 318 -48 83 -167 175 -255 197 -63 15 -194 12 -247 -5z"/>
<path d="M7010 5338 c-25 -5 -49 -14 -54 -19 -6 -5 -16 -9 -23 -9 -8 0 -19 -5
-26 -10 -7 -6 -31 -24 -55 -40 -57 -41 -127 -138 -148 -208 -24 -77 -24 -211
0 -277 67 -180 235 -299 419 -296 48 1 61 3 102 13 163 41 284 168 322 338 5
24 5 143 0 165 -16 66 -23 85 -53 135 -56 96 -133 159 -242 199 -55 20 -173
25 -242 9z"/>
<path d="M5468 4379 c-236 -70 -305 -368 -123 -531 16 -15 38 -30 48 -34 9 -3
17 -9 17 -12 0 -4 19 -13 43 -20 127 -38 251 -3 336 94 54 61 75 118 75 204 1
64 -4 85 -29 135 -71 142 -220 208 -367 164z"/>
<path d="M2080 2230 l0 -338 918 -1 c504 0 938 0 963 -1 l46 0 -2 -127 c-1
-71 -3 -130 -4 -133 0 -3 -433 -5 -961 -5 l-960 1 0 -531 c1 -418 4 -543 15
-590 54 -234 237 -422 470 -485 40 -11 251 -14 1083 -15 l1032 -1 1 31 c0 16
0 134 -1 260 -1 294 -1 326 5 336 3 4 1 10 -5 14 -6 4 -8 11 -4 16 3 6 5 86 5
177 -2 223 -1 263 4 273 3 4 1 10 -5 14 -6 4 -7 11 -4 17 4 6 6 49 5 97 -2
131 -1 183 4 192 3 4 1 10 -5 14 -6 4 -7 11 -4 17 8 13 7 255 -1 268 -3 6 -3
10 2 10 14 0 4 265 -13 339 -11 46 -66 171 -75 171 -5 0 -9 5 -9 11 0 15 -66
96 -109 134 -19 16 -42 37 -50 46 -31 32 -147 88 -224 107 -75 20 -115 20
-1098 21 l-1019 0 0 -339z m1915 -1202 c12 -7 13 -317 2 -335 -6 -9 -168 -12
-625 -12 l-617 1 1 166 c1 92 2 172 3 177 1 11 1219 14 1236 3z"/>
<path d="M5277 2545 c-2 -14 -1 -25 4 -25 4 0 4 -13 -1 -30 -5 -16 -6 -30 -2
-30 4 0 7 -22 7 -50 0 -27 -3 -50 -6 -50 -4 0 -3 -16 1 -35 4 -19 5 -35 1 -35
-3 0 -5 -73 -3 -163 1 -89 2 -178 2 -197 l-1 -36 338 1 338 0 1 337 1 336
-338 1 -337 0 -5 -24z"/>
<path d="M6937 2555 c-26 -6 -50 -13 -52 -14 -7 -2 -14 -3 -22 -5 -64 -11
-199 -102 -273 -184 -63 -69 -134 -196 -145 -262 -3 -19 -9 -51 -14 -70 -4
-19 -7 -354 -6 -745 1 -656 2 -716 19 -785 60 -240 278 -439 521 -475 62 -9
1439 -11 1515 -2 195 23 397 176 487 368 57 121 56 114 57 887 1 715 -2 801
-35 877 -7 17 -13 32 -13 35 -1 3 -17 31 -35 64 -31 53 -131 164 -188 208 -54
42 -145 83 -230 105 -15 3 -368 8 -783 9 -579 1 -766 -1 -803 -11z m1360 -665
l51 0 0 -604 0 -604 -623 -1 -623 0 -1 604 0 604 47 3 c36 2 733 1 1149 -2z"/>
<path d="M5303 1630 c-18 -5 -18 -39 -18 -810 l0 -805 315 -2 c173 -1 325 -4
337 -6 17 -3 22 2 25 25 3 16 1 31 -4 34 -5 3 -5 10 -2 16 10 15 10 648 1 648
-5 0 -5 5 -1 12 9 14 10 876 1 885 -8 7 -627 10 -654 3z"/>
</g>
</svg>
