<svg width="44" height="70" viewBox="0 0 44 70" fill="none" xmlns="http://www.w3.org/2000/svg">
<path d="M12.2497 53.9468H0V58.1749H11.1252C11.7399 58.1749 12.0398 58.1749 12.0398 58.1749C12.0398 58.1749 12.0398 58.4748 12.0398 59.0895V59.8392H0V65.9715C0 67.0511 0.38983 67.9957 1.1545 68.7903C1.94915 69.585 2.89374 69.9748 4.00326 69.9748H16.2529V57.965C16.2529 56.8855 15.8631 55.9409 15.0684 55.1463C14.3038 54.3366 13.3592 53.9468 12.2497 53.9468ZM12.0248 65.7466H5.14276C4.52803 65.7466 4.22816 65.7466 4.22816 65.7466C4.22816 65.7466 4.22816 65.4468 4.22816 64.832V63.5276H12.0248V65.7466Z" fill="#42E8FF"/>
<path d="M24.2594 59.7939H20.0312V69.9295H24.2594V59.7939Z" fill="#42E8FF"/>
<path d="M24.2296 53.9468H20.0015V58.1599H24.2296V53.9468Z" fill="#42E8FF"/>
<path d="M42.2218 55.1313C41.4421 54.3366 40.5125 53.9468 39.403 53.9468H31.1566C30.0621 53.9468 29.1325 54.3366 28.3378 55.1313C27.5431 55.9259 27.1533 56.8555 27.1533 57.95V65.9565C27.1533 67.0361 27.5431 67.9807 28.3378 68.7753C29.1325 69.57 30.077 69.9598 31.1566 69.9598H39.403C40.5125 69.9598 41.4421 69.57 42.2218 68.7753C43.0164 67.9807 43.4062 67.0511 43.4062 65.9565V57.95C43.4212 56.8705 43.0164 55.9259 42.2218 55.1313ZM39.1781 59.0895V64.832C39.1781 65.4468 39.1781 65.7466 39.1781 65.7466C39.1781 65.7466 38.8782 65.7466 38.2635 65.7466H32.2961C31.6813 65.7466 31.3815 65.7466 31.3815 65.7466C31.3815 65.7466 31.3815 65.4468 31.3815 64.832V59.0895C31.3815 58.4748 31.3815 58.1749 31.3815 58.1749C31.3815 58.1749 31.6813 58.1749 32.2961 58.1749H38.2635C38.8782 58.1749 39.1781 58.1749 39.1781 58.1749C39.1781 58.1749 39.1781 58.4748 39.1781 59.0895Z" fill="#42E8FF"/>
<path d="M21.7103 17.9473C18.7866 17.9473 16.4326 20.3162 16.4326 23.225C16.4326 26.1337 18.8016 28.5027 21.7103 28.5027C24.619 28.5027 26.988 26.1337 26.988 23.225C26.988 20.3162 24.619 17.9473 21.7103 17.9473Z" fill="#42E8FF"/>
<path d="M21.7105 31.9658C19.7464 31.9658 18.1421 33.5551 18.1421 35.5343C18.1421 37.4984 19.7314 39.1027 21.7105 39.1027C23.6897 39.1027 25.279 37.5134 25.279 35.5343C25.279 33.5551 23.6747 31.9658 21.7105 31.9658Z" fill="#42E8FF"/>
<path d="M21.7105 14.5138C23.6747 14.5138 25.279 12.9245 25.279 10.9454C25.279 8.96626 23.6897 7.37695 21.7105 7.37695C19.7314 7.37695 18.1421 8.96626 18.1421 10.9454C18.1421 12.9245 19.7464 14.5138 21.7105 14.5138Z" fill="#42E8FF"/>
<path d="M31.4864 20.4059C33.4506 20.4059 35.0549 18.8166 35.0549 16.8375C35.0549 14.8733 33.4656 13.269 31.4864 13.269C29.5073 13.269 27.918 14.8583 27.918 16.8375C27.918 18.8166 29.5073 20.4059 31.4864 20.4059Z" fill="#42E8FF"/>
<path d="M31.4861 9.92588C32.9932 9.92588 34.2149 8.70415 34.2149 7.19707C34.2149 5.68999 32.9932 4.46826 31.4861 4.46826C29.9791 4.46826 28.7573 5.68999 28.7573 7.19707C28.7573 8.70415 29.9791 9.92588 31.4861 9.92588Z" fill="#42E8FF"/>
<path d="M31.4861 36.5542C29.9868 36.5542 28.7573 37.7687 28.7573 39.283C28.7573 40.7824 29.9718 42.0118 31.4861 42.0118C33.0005 42.0118 34.2149 40.7973 34.2149 39.283C34.2 37.7687 32.9855 36.5542 31.4861 36.5542Z" fill="#42E8FF"/>
<path d="M31.4864 33.1955C33.4572 33.1955 35.0549 31.5978 35.0549 29.627C35.0549 27.6562 33.4572 26.0586 31.4864 26.0586C29.5156 26.0586 27.918 27.6562 27.918 29.627C27.918 31.5978 29.5156 33.1955 31.4864 33.1955Z" fill="#42E8FF"/>
<path d="M40.0174 25.7585C41.4118 25.7585 42.5363 24.634 42.5363 23.2396C42.5363 21.8452 41.4118 20.7207 40.0174 20.7207C38.623 20.7207 37.4985 21.8452 37.4985 23.2396C37.4985 24.634 38.623 25.7585 40.0174 25.7585Z" fill="#42E8FF"/>
<path d="M40.0177 14.2137C40.9173 14.2137 41.637 13.494 41.637 12.5944C41.637 11.6948 40.9173 10.9751 40.0177 10.9751C39.1181 10.9751 38.3984 11.6948 38.3984 12.5944C38.3984 13.494 39.1181 14.2137 40.0177 14.2137Z" fill="#42E8FF"/>
<path d="M38.3984 33.8703C38.3984 34.7699 39.1181 35.4896 40.0177 35.4896C40.9173 35.4896 41.637 34.7699 41.637 33.8703C41.637 32.9707 40.9173 32.251 40.0177 32.251C39.1181 32.251 38.3984 32.9707 38.3984 33.8703Z" fill="#42E8FF"/>
<path d="M11.9347 33.1955C13.9055 33.1955 15.5031 31.5978 15.5031 29.627C15.5031 27.6562 13.9055 26.0586 11.9347 26.0586C9.96386 26.0586 8.36621 27.6562 8.36621 29.627C8.36621 31.5978 9.96386 33.1955 11.9347 33.1955Z" fill="#42E8FF"/>
<path d="M11.9349 36.5542C10.4355 36.5542 9.20605 37.7687 9.20605 39.283C9.20605 40.7824 10.4205 42.0118 11.9349 42.0118C13.4492 42.0118 14.6637 40.7973 14.6637 39.283C14.6637 37.7687 13.4342 36.5542 11.9349 36.5542Z" fill="#42E8FF"/>
<path d="M11.9349 9.92588C13.4419 9.92588 14.6637 8.70415 14.6637 7.19707C14.6637 5.68999 13.4419 4.46826 11.9349 4.46826C10.4278 4.46826 9.20605 5.68999 9.20605 7.19707C9.20605 8.70415 10.4278 9.92588 11.9349 9.92588Z" fill="#42E8FF"/>
<path d="M11.9347 20.4059C13.8988 20.4059 15.5031 18.8166 15.5031 16.8375C15.5031 14.8733 13.9138 13.269 11.9347 13.269C9.95552 13.269 8.36621 14.8583 8.36621 16.8375C8.36621 18.8166 9.97051 20.4059 11.9347 20.4059Z" fill="#42E8FF"/>
<path d="M3.40367 25.7585C4.79806 25.7585 5.92257 24.634 5.92257 23.2396C5.92257 21.8452 4.79806 20.7207 3.40367 20.7207C2.00928 20.7207 0.884766 21.8452 0.884766 23.2396C0.884766 24.634 2.00928 25.7585 3.40367 25.7585Z" fill="#42E8FF"/>
<path d="M1.78418 33.8703C1.78418 34.7699 2.50387 35.4896 3.40347 35.4896C4.30308 35.4896 5.02277 34.7699 5.02277 33.8703C5.02277 32.9707 4.30308 32.251 3.40347 32.251C2.50387 32.251 1.78418 32.9707 1.78418 33.8703Z" fill="#42E8FF"/>
<path d="M3.40347 14.2137C4.30308 14.2137 5.02277 13.494 5.02277 12.5944C5.02277 11.6948 4.30308 10.9751 3.40347 10.9751C2.50387 10.9751 1.78418 11.6948 1.78418 12.5944C1.78418 13.494 2.50387 14.2137 3.40347 14.2137Z" fill="#42E8FF"/>
<path d="M21.7107 3.92829C22.7903 3.92829 23.6749 3.04367 23.6749 1.96414C23.6749 0.884614 22.7903 0 21.7107 0C20.6312 0 19.7466 0.884614 19.7466 1.96414C19.7466 3.05867 20.6312 3.92829 21.7107 3.92829Z" fill="#42E8FF"/>
<path d="M21.7107 46.4649C22.7903 46.4649 23.6749 45.5803 23.6749 44.5008C23.6749 43.4212 22.7903 42.5366 21.7107 42.5366C20.6312 42.5366 19.7466 43.4212 19.7466 44.5008C19.7466 45.5803 20.6312 46.4649 21.7107 46.4649Z" fill="#42E8FF"/>
</svg>
