<svg width="20" height="20" viewBox="0 0 20 20" fill="none" xmlns="http://www.w3.org/2000/svg">
<path d="M17.1138 7.50366H18.2682V17.8933C18.2682 18.1994 18.1465 18.4931 17.93 18.7096C17.7136 18.926 17.4199 19.0477 17.1138 19.0477H2.10655C1.80038 19.0477 1.50676 18.926 1.29026 18.7096C1.07377 18.4931 0.952148 18.1994 0.952148 17.8933V2.88605C0.952148 2.57989 1.07377 2.28626 1.29026 2.06977C1.50676 1.85328 1.80038 1.73165 2.10655 1.73165H12.4962V2.88605H2.10655V17.8933H17.1138V7.50366ZM19.4226 3.12501L8.75071 13.7951L5.3533 14.6448L6.20467 11.2491L16.8748 0.577251C17.0913 0.360834 17.3849 0.239258 17.691 0.239258C17.9971 0.239258 18.2906 0.360834 18.5071 0.577251L19.4226 1.49269C19.639 1.70917 19.7606 2.00275 19.7606 2.30885C19.7606 2.61496 19.639 2.90853 19.4226 3.12501ZM18.6064 2.30885L17.691 1.39341L7.24363 11.8407L6.93887 13.0609L8.15908 12.7562L18.6064 2.30885Z" fill="#4C4F57" stroke="#4C4F57" stroke-width="0.2"/>
</svg>
