<svg width="67" height="67" viewBox="0 0 67 67" fill="none" xmlns="http://www.w3.org/2000/svg">
<path d="M33.456 0C15.0229 0 0.0766602 14.9462 0.0766602 33.3793C0.0766602 51.8125 15.0229 66.7587 33.456 66.7587C51.8892 66.7587 66.8354 51.8125 66.8354 33.3793C66.8354 14.9462 51.8892 0 33.456 0ZM36.1755 41.6348C32.9047 46.2393 26.3331 47.5805 21.207 45.606C16.066 43.6465 12.4151 38.2149 12.8547 32.679C12.9665 25.9062 19.2027 19.968 25.9755 20.199C29.224 20.05 32.2788 21.4582 34.7673 23.4475C33.7019 24.6545 32.6066 25.8168 31.4294 26.8972C28.4417 24.8333 24.1873 24.2447 21.1995 26.629C16.9228 29.5869 16.7291 36.5683 20.8419 39.7497C24.8429 43.3783 32.4055 41.5752 33.5156 36.0169C31.0122 35.9797 28.4938 36.0169 25.9904 35.935C25.9829 34.4374 25.9755 32.9472 25.9829 31.4496C30.1702 31.4347 34.365 31.4273 38.5598 31.4645C38.8056 34.9887 38.3363 38.729 36.1755 41.6348ZM54.2436 35.2048C52.9919 35.2197 51.7401 35.2271 50.4884 35.2346C50.4735 36.4863 50.4661 37.738 50.4661 38.9898H46.7183C46.7034 37.738 46.7034 36.4938 46.696 35.242C45.4443 35.2271 44.1925 35.2197 42.9408 35.2048V31.472C44.1925 31.4571 45.4443 31.4496 46.696 31.4496C46.7034 30.1979 46.7183 28.9462 46.7258 27.6944H50.4661L50.4884 31.4496C51.7401 31.4645 52.9919 31.4645 54.2436 31.472V35.2048Z" fill="#393D46"/>
</svg>
