<svg width="67" height="67" viewBox="0 0 67 67" fill="none" xmlns="http://www.w3.org/2000/svg">
<path fill-rule="evenodd" clip-rule="evenodd" d="M0.120605 33.4775C0.120605 15.0985 15.0228 0.196289 33.4018 0.196289C51.7807 0.196289 66.683 15.0985 66.683 33.4775C66.683 51.8564 51.7807 66.7586 33.4018 66.7586C15.0228 66.7586 0.120605 51.8564 0.120605 33.4775ZM33.4018 16.837C28.8816 16.837 28.3158 16.8551 26.5413 16.9368C24.7714 17.0185 23.5596 17.2999 22.5007 17.7098C21.391 18.128 20.3859 18.7831 19.5553 19.6295C18.7083 20.4605 18.0527 21.4662 17.6341 22.5764C17.2241 23.6354 16.9412 24.8456 16.861 26.6186C16.7808 28.3916 16.7612 28.9574 16.7612 33.4775C16.7612 37.9962 16.7793 38.562 16.861 40.3395C16.9427 42.1095 17.2241 43.3197 17.6341 44.3786C18.0521 45.4888 18.7072 46.4945 19.5538 47.3255C20.3855 48.1716 21.3917 48.8262 22.5022 49.2437C23.5611 49.6552 24.7714 49.9381 26.5413 50.0183C28.3158 50.0985 28.8816 50.1181 33.4018 50.1181C37.922 50.1181 38.4877 50.1 40.2637 50.0183C42.0337 49.9366 43.2439 49.6552 44.3029 49.2437C45.4117 48.8262 46.4177 48.1727 47.2498 47.3255C48.0958 46.4938 48.7504 45.4876 49.168 44.3771C49.5794 43.3182 49.8623 42.108 49.9425 40.338C50.0227 38.5635 50.0424 37.9977 50.0424 33.4775C50.0424 28.9589 50.0242 28.3931 49.9425 26.6156C49.8608 24.8456 49.5794 23.6354 49.168 22.5764C48.7504 21.4661 48.0969 20.4616 47.2498 19.6311C46.4177 18.7839 45.4117 18.1289 44.3029 17.7098C43.2439 17.2999 42.0337 17.017 40.2607 16.9368C38.4877 16.8566 37.922 16.837 33.4018 16.837ZM33.4018 19.8353C37.8448 19.8353 38.3713 19.8519 40.1261 19.9321C41.7493 20.0062 42.6297 20.277 43.2167 20.5054C43.9393 20.772 44.5932 21.1969 45.1304 21.749C45.7128 22.3314 46.0713 22.8866 46.3739 23.6626C46.6023 24.2496 46.8731 25.13 46.9472 26.7532C47.0274 28.5081 47.044 29.0345 47.044 33.4775C47.044 37.9206 47.0274 38.447 46.9472 40.2019C46.8731 41.8251 46.6023 42.7055 46.3739 43.2925C46.1076 44.0141 45.6825 44.6691 45.1304 45.2061C44.5479 45.7885 43.9927 46.1471 43.2167 46.4496C42.6297 46.6781 41.7493 46.9489 40.1261 47.023C38.3713 47.1032 37.8463 47.1198 33.4018 47.1198C28.9572 47.1198 28.4323 47.1032 26.6775 47.023C25.0542 46.9489 24.1738 46.6781 23.5868 46.4496C22.8652 46.1834 22.2102 45.7583 21.6732 45.2061C21.121 44.6691 20.6959 44.0141 20.4297 43.2925C20.2012 42.7055 19.9305 41.8251 19.8563 40.2019C19.7761 38.447 19.7595 37.9206 19.7595 33.4775C19.7595 29.0345 19.7761 28.5081 19.8563 26.7532C19.9305 25.13 20.2012 24.2496 20.4297 23.6626C20.6962 22.9399 21.1211 22.2861 21.6732 21.749C22.2556 21.1665 22.8108 20.808 23.5868 20.5054C24.1738 20.277 25.0542 20.0062 26.6775 19.9321C28.4323 19.8519 28.9587 19.8353 33.4018 19.8353ZM35.0158 38.7961C33.7851 39.1682 32.4633 39.1015 31.2763 38.6074C30.5181 38.293 29.8391 37.8144 29.2881 37.2061C28.7371 36.5978 28.3278 35.8749 28.0897 35.0894C27.8516 34.304 27.7906 33.4755 27.9111 32.6636C28.0317 31.8517 28.3307 31.0767 28.7867 30.3943C29.2427 29.7118 29.8444 29.139 30.5484 28.717C31.2523 28.295 32.0411 28.0344 32.8579 27.9538C33.6747 27.8732 34.4992 27.9748 35.2721 28.2511C36.0449 28.5274 36.7469 28.9717 37.3274 29.5519C38.2381 30.4595 38.8055 31.6552 38.9326 32.9346C39.0596 34.2141 38.7386 35.498 38.0242 36.567C37.3099 37.636 36.2465 38.4239 35.0158 38.7961ZM30.1286 25.5753C29.0908 26.0052 28.1479 26.6352 27.3537 27.4294C25.7496 29.0335 24.8485 31.2091 24.8485 33.4775C24.8485 35.746 25.7496 37.9216 27.3537 39.5256C28.9577 41.1297 31.1333 42.0308 33.4018 42.0308C35.6702 42.0308 37.8458 41.1297 39.4499 39.5256C40.2441 38.7314 40.8741 37.7885 41.304 36.7507C41.7338 35.713 41.9551 34.6008 41.9551 33.4775C41.9551 32.3543 41.7338 31.2421 41.304 30.2043C40.8741 29.1666 40.2441 28.2237 39.4499 27.4294C38.6556 26.6352 37.7127 26.0052 36.675 25.5753C35.6372 25.1455 34.525 24.9242 33.4018 24.9242C32.2785 24.9242 31.1663 25.1455 30.1286 25.5753ZM44.3154 25.5415C44.2064 25.7891 44.0489 26.0124 43.8521 26.198C43.4693 26.5591 42.9608 26.7568 42.4347 26.7491C41.9085 26.7415 41.4061 26.529 41.034 26.157C40.6619 25.7849 40.4495 25.2824 40.4418 24.7563C40.4341 24.2301 40.6318 23.7217 40.9929 23.3389C41.1786 23.1421 41.4018 22.9845 41.6495 22.8755C41.8971 22.7665 42.1641 22.7083 42.4347 22.7044C42.7052 22.7005 42.9738 22.7508 43.2245 22.8526C43.4753 22.9543 43.703 23.1053 43.8944 23.2966C44.0857 23.4879 44.2367 23.7157 44.3384 23.9664C44.4401 24.2171 44.4905 24.4857 44.4865 24.7563C44.4826 25.0268 44.4244 25.2938 44.3154 25.5415Z" fill="#393D46"/>
</svg>
