<svg width="120" height="50" viewBox="0 0 120 50" fill="none" xmlns="http://www.w3.org/2000/svg">
<path d="M72.6112 12.7246H53.9795V19.1556H70.9008C71.8358 19.1556 72.2919 19.1556 72.2919 19.1556C72.2919 19.1556 72.2919 19.6117 72.2919 20.5467V21.687H54.0023V31.0142C54.0023 32.6562 54.5952 34.0929 55.7583 35.3016C56.967 36.5102 58.4037 37.1032 60.0912 37.1032H78.7229V18.8364C78.7229 17.1944 78.13 15.7577 76.9213 14.549C75.7127 13.3403 74.276 12.7246 72.6112 12.7246ZM72.2691 30.6722H61.7788C60.8438 30.6722 60.3877 30.6722 60.3877 30.6722C60.3877 30.6722 60.3877 30.2161 60.3877 29.2811V27.297H72.2463V30.6722H72.2691Z" fill="white"/>
<path d="M90.8778 21.6416H84.4468V37.0578H90.8778V21.6416Z" fill="white"/>
<path d="M90.8324 12.7246H84.4014V19.1328H90.8324V12.7246Z" fill="white"/>
<path d="M118.198 14.5262C117.012 13.3175 115.599 12.7246 113.911 12.7246H101.368C99.7035 12.7246 98.2896 13.3175 97.0809 14.5262C95.8722 15.7349 95.2793 17.1488 95.2793 18.8135V30.9914C95.2793 32.6334 95.8722 34.0701 97.0809 35.2788C98.2896 36.4874 99.7263 37.0804 101.368 37.0804H113.911C115.599 37.0804 117.012 36.4874 118.198 35.2788C119.407 34.0701 120 32.6562 120 30.9914V18.8135C120 17.1716 119.407 15.7349 118.198 14.5262ZM113.569 20.5467V29.2811C113.569 30.2161 113.569 30.6722 113.569 30.6722C113.569 30.6722 113.113 30.6722 112.178 30.6722H103.101C102.166 30.6722 101.71 30.6722 101.71 30.6722C101.71 30.6722 101.71 30.2161 101.71 29.2811V20.5467C101.71 19.6117 101.71 19.1556 101.71 19.1556C101.71 19.1556 102.166 19.1556 103.101 19.1556H112.178C113.113 19.1556 113.569 19.1556 113.569 19.1556C113.569 19.1556 113.569 19.6117 113.569 20.5467Z" fill="white"/>
<path d="M22.3718 19.248C19.2475 19.248 16.6934 21.7794 16.6934 24.9265C16.6934 28.0508 19.2247 30.6049 22.3718 30.6049C25.5189 30.6049 28.0503 28.0736 28.0503 24.9265C28.0503 21.7794 25.4961 19.248 22.3718 19.248Z" fill="white"/>
<path d="M22.3718 34.2988C20.2509 34.2988 18.5405 36.0092 18.5405 38.1301C18.5405 40.2509 20.2509 41.9613 22.3718 41.9613C24.4926 41.9613 26.203 40.2509 26.203 38.1301C26.203 36.0092 24.4926 34.2988 22.3718 34.2988Z" fill="white"/>
<path d="M22.3718 15.5531C24.4926 15.5531 26.203 13.8427 26.203 11.7219C26.203 9.601 24.4926 7.89062 22.3718 7.89062C20.2509 7.89062 18.5405 9.601 18.5405 11.7219C18.5405 13.8427 20.2509 15.5531 22.3718 15.5531Z" fill="white"/>
<path d="M32.862 21.8695C34.9829 21.8695 36.6933 20.1591 36.6933 18.0383C36.6933 15.9174 34.9829 14.207 32.862 14.207C30.7411 14.207 29.0308 15.9174 29.0308 18.0383C29.0308 20.1591 30.7411 21.8695 32.862 21.8695Z" fill="white"/>
<path d="M32.8619 10.6037C34.4741 10.6037 35.781 9.29681 35.781 7.68467C35.781 6.07253 34.4741 4.76562 32.8619 4.76562C31.2498 4.76562 29.9429 6.07253 29.9429 7.68467C29.9429 9.29681 31.2498 10.6037 32.8619 10.6037Z" fill="white"/>
<path d="M32.8619 39.2246C31.2428 39.2246 29.9429 40.5245 29.9429 42.1437C29.9429 43.7628 31.2428 45.0627 32.8619 45.0627C34.4811 45.0627 35.781 43.7628 35.781 42.1437C35.781 40.5245 34.4811 39.2246 32.8619 39.2246Z" fill="white"/>
<path d="M32.862 35.6215C34.9779 35.6215 36.6933 33.9062 36.6933 31.7902C36.6933 29.6743 34.9779 27.959 32.862 27.959C30.7461 27.959 29.0308 29.6743 29.0308 31.7902C29.0308 33.9062 30.7461 35.6215 32.862 35.6215Z" fill="white"/>
<path d="M42.0297 27.617C43.5348 27.617 44.7435 26.4084 44.7435 24.9032C44.7435 23.3981 43.5348 22.1895 42.0297 22.1895C40.5246 22.1895 39.3159 23.3981 39.3159 24.9032C39.3159 26.4084 40.5246 27.617 42.0297 27.617Z" fill="white"/>
<path d="M42.0296 15.2339C42.9874 15.2339 43.7627 14.4586 43.7627 13.5008C43.7627 12.5429 42.9874 11.7676 42.0296 11.7676C41.0718 11.7676 40.2964 12.5429 40.2964 13.5008C40.2964 14.4586 41.0718 15.2339 42.0296 15.2339Z" fill="white"/>
<path d="M40.2964 36.3289C40.2964 37.2867 41.0718 38.0621 42.0296 38.0621C42.9874 38.0621 43.7627 37.2867 43.7627 36.3289C43.7627 35.3711 42.9874 34.5957 42.0296 34.5957C41.0718 34.5957 40.2964 35.3711 40.2964 36.3289Z" fill="white"/>
<path d="M11.8815 35.6215C13.9975 35.6215 15.7128 33.9062 15.7128 31.7902C15.7128 29.6743 13.9975 27.959 11.8815 27.959C9.7656 27.959 8.05029 29.6743 8.05029 31.7902C8.05029 33.9062 9.7656 35.6215 11.8815 35.6215Z" fill="white"/>
<path d="M11.8814 39.2246C10.2623 39.2246 8.9624 40.5245 8.9624 42.1437C8.9624 43.7628 10.2623 45.0627 11.8814 45.0627C13.5006 45.0627 14.8005 43.7628 14.8005 42.1437C14.8005 40.5245 13.5006 39.2246 11.8814 39.2246Z" fill="white"/>
<path d="M11.8814 10.6037C13.4936 10.6037 14.8005 9.29681 14.8005 7.68467C14.8005 6.07253 13.4936 4.76562 11.8814 4.76562C10.2693 4.76562 8.9624 6.07253 8.9624 7.68467C8.9624 9.29681 10.2693 10.6037 11.8814 10.6037Z" fill="white"/>
<path d="M11.8815 21.8695C14.0024 21.8695 15.7128 20.1591 15.7128 18.0383C15.7128 15.9174 14.0024 14.207 11.8815 14.207C9.76067 14.207 8.05029 15.9174 8.05029 18.0383C8.05029 20.1591 9.76067 21.8695 11.8815 21.8695Z" fill="white"/>
<path d="M2.7138 27.617C4.21893 27.617 5.4276 26.4084 5.4276 24.9032C5.4276 23.3981 4.21893 22.1895 2.7138 22.1895C1.20867 22.1895 0 23.3981 0 24.9032C0 26.4084 1.20867 27.617 2.7138 27.617Z" fill="white"/>
<path d="M0.980469 36.3289C0.980469 37.2867 1.75584 38.0621 2.71365 38.0621C3.67146 38.0621 4.44683 37.2867 4.44683 36.3289C4.44683 35.3711 3.67146 34.5957 2.71365 34.5957C1.75584 34.5957 0.980469 35.3711 0.980469 36.3289Z" fill="white"/>
<path d="M2.71365 15.2339C3.67146 15.2339 4.44683 14.4586 4.44683 13.5008C4.44683 12.5429 3.67146 11.7676 2.71365 11.7676C1.75584 11.7676 0.980469 12.5429 0.980469 13.5008C0.980469 14.4586 1.75584 15.2339 2.71365 15.2339Z" fill="white"/>
<path d="M22.3719 4.19612C23.535 4.19612 24.4928 3.26112 24.4928 2.09806C24.4928 0.935006 23.5578 0 22.3719 0C21.2088 0 20.2738 0.935006 20.2738 2.09806C20.251 3.23831 21.2088 4.19612 22.3719 4.19612Z" fill="white"/>
<path d="M22.372 49.8739C23.535 49.8739 24.4929 48.9389 24.4929 47.7758C24.4929 46.6127 23.5578 45.6777 22.372 45.6777C21.2089 45.6777 20.2739 46.6127 20.2739 47.7758C20.2739 48.9389 21.2089 49.8739 22.372 49.8739Z" fill="white"/>
</svg>
