<svg width="20" height="20" viewBox="0 0 20 20" fill="none" xmlns="http://www.w3.org/2000/svg">
<path d="M18.9676 13.6517L13.6128 11.8652L11.8483 13.6258C9.72434 12.1271 7.87284 10.2756 6.37407 8.15165L8.13472 6.39101L6.34827 1.0323C6.25358 0.753192 6.06681 0.51457 5.81863 0.355601C5.57044 0.196632 5.27559 0.126762 4.98246 0.15746L1.16956 0.580685L0.34375 1.40778L0.366331 1.70391C0.386331 1.95488 0.905041 7.93617 6.4844 13.5142C12.0638 19.0923 18.0437 19.6129 18.2947 19.6336L18.5908 19.6562L19.4179 18.8304L19.8412 15.0187C19.8727 14.7255 19.8034 14.4303 19.6446 14.1817C19.4858 13.9332 19.247 13.7462 18.9676 13.6517ZM18.187 18.2381L18.1115 18.3123C14.0296 17.5808 10.2814 15.5835 7.39794 12.6033C4.42291 9.71566 2.42673 5.96898 1.68956 1.88907L1.7631 1.81423L5.12569 1.44133L6.65923 6.04197L4.78827 7.91294L4.99601 8.32843C5.97343 10.2833 9.71665 14.0265 11.6715 15.0039L12.087 15.2116L13.9579 13.3407L18.5586 14.8742L18.187 18.2381Z" fill="white"/>
</svg>
