<svg width="67" height="67" viewBox="0 0 67 67" fill="none" xmlns="http://www.w3.org/2000/svg">
<path d="M27.9436 56.5168L27.478 58.1927C26.8263 60.8929 25.3365 63.4068 24.033 65.4552C27.1987 66.2932 30.2713 66.7587 33.5301 66.7587C42.7478 66.7587 51.0344 63.1275 57.1796 57.0754C63.2316 51.0234 66.956 42.6436 66.956 33.4259C66.956 24.2082 63.2316 15.8284 57.1796 9.77638C51.0344 3.72433 42.7478 0 33.5301 0C24.3123 0 16.0257 3.72433 9.97364 9.77638C3.82849 15.8284 0.197266 24.2082 0.197266 33.4259C0.197266 40.3159 2.15254 46.6473 5.78377 51.8614C9.32189 57.0754 14.3497 61.3584 20.1225 63.8723C20.0293 61.5446 20.2156 58.9376 20.7742 56.4237C20.8673 55.6788 21.1466 54.5615 21.5191 53.0718C21.7984 51.7683 22.2639 49.9061 22.8226 47.4853C23.3812 45.1576 24.1261 42.085 24.9641 38.1744C24.6848 37.6158 24.4986 37.0571 24.4054 36.4054C24.033 35.195 23.8468 34.0777 23.9399 32.8673C23.9399 28.0256 26.7331 24.2082 30.4575 24.2082C33.5301 24.2082 34.9267 26.5359 34.9267 29.236C34.9267 30.7258 34.4611 32.4948 33.8094 34.6363C33.0645 36.8709 32.4128 38.8262 31.9472 41.0608C31.4817 42.8298 31.9472 44.4127 32.9714 45.6231C33.9956 46.7404 35.5784 47.4853 37.2544 47.4853C40.4201 47.4853 43.0271 45.53 44.8893 42.2712C46.7514 39.0124 47.8687 34.5432 47.8687 29.7016C47.8687 26.0703 46.6583 22.9978 44.2375 20.6701C41.8167 18.3423 38.3717 17.0388 33.9025 17.0388C28.8746 17.0388 24.7779 18.8079 21.8915 21.7874C19.0052 24.7668 17.4223 28.7705 17.4223 33.0535C17.4223 35.7536 18.2603 37.802 19.75 39.4779C20.2156 40.2228 20.4018 40.5021 20.2156 41.3401C20.1225 41.6194 19.9362 42.085 19.8431 42.6436C19.5638 43.854 19.4707 45.4369 17.7947 44.8782C13.1393 43.0161 10.9978 37.802 10.9978 32.0293C10.9978 27.2808 12.9531 22.1598 16.9568 18.1561C20.9604 14.0594 27.0125 11.2661 34.8336 11.2661C41.2581 11.2661 46.5652 13.5007 50.2896 17.1319C54.0139 20.6701 55.9692 25.5117 55.9692 30.3533C55.9692 36.964 54.2001 42.6436 51.0344 46.7404C47.8687 50.8372 43.3064 53.258 37.9993 53.258C34.368 53.258 31.0161 51.3958 29.8057 49.0681C29.2471 51.1165 28.8746 52.6062 28.5953 53.7235C28.316 54.9339 28.1298 55.9581 27.9436 56.5168Z" fill="#393D46"/>
</svg>
