<svg width="16" height="20" viewBox="0 0 16 20" fill="none" xmlns="http://www.w3.org/2000/svg">
<path d="M15.4787 6.5H12.0002V4C12.0002 1.7195 10.2807 0 8.00017 0C5.71967 0 4.00017 1.7195 4.00017 4V6.5H0.519666L0.042166 18.44C0.026166 18.8455 0.177666 19.246 0.459166 19.539C0.740166 19.832 1.13517 20 1.54117 20H14.5002C15.3272 20 16.0002 19.327 15.9997 18.4785L15.4787 6.5ZM5.00017 4C5.00017 2.29 6.28967 1 8.00017 1C9.71067 1 11.0002 2.29 11.0002 4V6.5H5.00017V4ZM14.5002 19H1.54117C1.40567 19 1.27417 18.944 1.18067 18.8465C1.08667 18.7485 1.03567 18.615 1.04117 18.48L1.48067 7.5H4.00017V9.5H5.00017V7.5H11.0002V9.5H12.0002V7.5H14.5217L15.0002 18.5C15.0002 18.7755 14.7762 19 14.5002 19Z" fill="#393D46"/>
</svg>
