<svg width="18" height="20" viewBox="0 0 18 20" fill="none" xmlns="http://www.w3.org/2000/svg">
<path d="M7.45029 6.84961H6.55029V16.7496H7.45029V6.84961Z" fill="#4C4F57" stroke="#4C4F57" stroke-width="0.2"/>
<path d="M11.65 6.84961H10.75V16.7496H11.65V6.84961Z" fill="#4C4F57" stroke="#4C4F57" stroke-width="0.2"/>
<path d="M17.2 3.7H13.15V2.35C13.15 1.63 12.52 1 11.8 1H6.4C5.68 1 5.05 1.63 5.05 2.35V3.7H1V4.6H2.35L3.16 18.64C3.16 19.36 3.79 19.9 4.51 19.9H13.6C14.32 19.9 14.95 19.36 14.95 18.64L15.76 4.6H17.2V3.7ZM5.95 2.35C5.95 2.08 6.13 1.9 6.4 1.9H11.8C12.07 1.9 12.25 2.08 12.25 2.35V3.7H5.95V2.35ZM14.14 18.55C14.14 18.82 13.96 19 13.69 19H4.51C4.24 19 4.06 18.82 4.06 18.55L3.25 4.6H14.86L14.14 18.55Z" fill="#4C4F57" stroke="#4C4F57" stroke-width="0.2"/>
</svg>
