<svg width="67" height="67" viewBox="0 0 67 67" fill="none" xmlns="http://www.w3.org/2000/svg">
<path d="M33.6206 0C15.1854 0 0.241211 14.9442 0.241211 33.3793C0.241211 51.8145 15.1854 66.7587 33.6206 66.7587C52.0557 66.7587 66.9999 51.8145 66.9999 33.3793C66.9999 14.9442 52.0557 0 33.6206 0ZM47.1983 27.3432C47.2122 27.6284 47.2157 27.9135 47.2157 28.1916C47.2157 36.8842 40.6059 46.9015 28.5128 46.9015C24.9395 46.9074 21.4405 45.8811 18.4364 43.946C18.9476 44.0086 19.4726 44.0329 20.0046 44.0329C23.0852 44.0329 25.919 42.9863 28.1686 41.22C26.7977 41.1931 25.4693 40.7391 24.3686 39.9214C23.2679 39.1037 22.4498 37.9629 22.0282 36.6582C23.0127 36.8454 24.027 36.8061 24.9941 36.5434C23.5061 36.2425 22.168 35.4363 21.2066 34.2613C20.2452 33.0864 19.7198 31.6152 19.7194 30.097V30.0171C20.6061 30.5073 21.6214 30.8064 22.6993 30.8411C21.3043 29.9125 20.3168 28.486 19.9387 26.8535C19.5606 25.2209 19.8205 23.5055 20.6652 22.0582C22.3166 24.0888 24.3761 25.7499 26.7102 26.934C29.0444 28.1182 31.6012 28.7989 34.2151 28.9322C33.8828 27.5216 34.0258 26.0408 34.622 24.7199C35.2181 23.3989 36.234 22.312 37.5116 21.628C38.7892 20.9439 40.257 20.7012 41.6869 20.9374C43.1167 21.1737 44.4284 21.8757 45.4181 22.9344C46.8894 22.6433 48.3004 22.1036 49.5905 21.3384C49.1001 22.8618 48.0734 24.1554 46.7011 24.9789C48.0044 24.8219 49.2771 24.4715 50.4771 23.9392C49.5957 25.2601 48.4853 26.4129 47.1983 27.3432Z" fill="#393D46"/>
</svg>
